<?xml version="1.0" encoding="utf-8"?>
<!-- Generator: Adobe Illustrator 24.0.1, SVG Export Plug-In . SVG Version: 6.00 Build 0)  -->
<svg version="1.1" xmlns="http://www.w3.org/2000/svg" xmlns:xlink="http://www.w3.org/1999/xlink" x="0px" y="0px"
	 width="819.609px" height="608.42px" viewBox="0 0 819.609 608.42" style="enable-background:new 0 0 819.609 608.42;"
	 xml:space="preserve">
<style type="text/css">
	.st0{fill:#EFEFEF;}
	.st1{fill:#FFFFFF;}
	.st2{fill:url(#SVGID_1_);}
	.st3{fill:url(#SVGID_2_);}
	.st4{fill:url(#SVGID_3_);}
	.st5{fill:#333333;}
	.st6{fill:url(#SVGID_4_);}
	.st7{fill:url(#SVGID_5_);}
	.st8{fill:url(#SVGID_6_);}
	.st9{fill:url(#SVGID_7_);}
	.st10{fill-rule:evenodd;clip-rule:evenodd;fill:#333333;}
</style>
<g id="Layer_1">
	<rect y="366.178" class="st0" width="819.609" height="237.282"/>
	<g>
		<rect x="246.679" y="192.579" class="st1" width="326.252" height="119.783"/>
		<linearGradient id="SVGID_1_" gradientUnits="userSpaceOnUse" x1="242.8472" y1="252.4709" x2="576.7617" y2="252.4709">
			<stop  offset="0" style="stop-color:#17C9C0"/>
			<stop  offset="0.1678" style="stop-color:#00A9D7"/>
			<stop  offset="0.5644" style="stop-color:#1CD0BB"/>
			<stop  offset="1" style="stop-color:#0FBEC8"/>
		</linearGradient>
		<path class="st2" d="M576.762,316.193H242.847V188.749h333.915V316.193z M250.51,308.531H569.1v-112.12H250.51V308.531z"/>
	</g>
	<g>
		<linearGradient id="SVGID_2_" gradientUnits="userSpaceOnUse" x1="332.1611" y1="70.0649" x2="487.4482" y2="70.0649">
			<stop  offset="0" style="stop-color:#17C9C0"/>
			<stop  offset="0.1678" style="stop-color:#00A9D7"/>
			<stop  offset="0.5644" style="stop-color:#1CD0BB"/>
			<stop  offset="1" style="stop-color:#0FBEC8"/>
		</linearGradient>
		<path class="st3" d="M475.02,125.771H337.627c-3.014,0-5.466-2.452-5.466-5.466V14.359h55.641l8.954,17.907h83.237
			c4.111,0,7.455,3.345,7.455,7.456v73.619C487.448,120.195,481.873,125.771,475.02,125.771z M339.112,118.819H475.02
			c3.021,0,5.478-2.457,5.478-5.478V39.722c0-0.268-0.235-0.503-0.504-0.503h-87.534l-8.954-17.907h-44.393V118.819z"/>
	</g>
	<g>
		<path d="M357.929,75.987h1.84l4.973,11.381h-2.099l-1.146-2.729h-5.344l-1.162,2.729h-2.034L357.929,75.987z M360.77,82.881
			l-1.953-4.521l-1.938,4.521H360.77z"/>
		<path d="M366.675,76.068h4.455c2.648,0,4.295,1.501,4.295,3.778v0.032c0,2.535-2.034,3.858-4.521,3.858h-2.244v3.632h-1.985
			V76.068z M370.969,81.944c1.502,0,2.438-0.839,2.438-2.018v-0.032c0-1.324-0.952-2.018-2.438-2.018h-2.309v4.068H370.969z"/>
		<path d="M377.456,76.068h4.455c2.648,0,4.295,1.501,4.295,3.778v0.032c0,2.535-2.034,3.858-4.521,3.858h-2.244v3.632h-1.985
			V76.068z M381.75,81.944c1.502,0,2.438-0.839,2.438-2.018v-0.032c0-1.324-0.952-2.018-2.438-2.018h-2.309v4.068H381.75z"/>
		<path d="M388.237,76.068h1.985v9.493h5.941v1.808h-7.927V76.068z"/>
		<path d="M398.341,76.068h1.985v11.301h-1.985V76.068z"/>
		<path d="M402.843,81.75v-0.032c0-3.212,2.406-5.844,5.828-5.844c2.083,0,3.342,0.727,4.424,1.76l-1.275,1.469
			c-0.904-0.839-1.873-1.404-3.164-1.404c-2.147,0-3.729,1.775-3.729,3.987v0.032c0,2.212,1.565,4.004,3.729,4.004
			c1.388,0,2.275-0.549,3.244-1.453l1.275,1.292c-1.178,1.227-2.47,2.002-4.585,2.002C405.297,87.562,402.843,84.995,402.843,81.75z
			"/>
		<path d="M419.258,75.987h1.84l4.973,11.381h-2.099l-1.146-2.729h-5.344l-1.162,2.729h-2.034L419.258,75.987z M422.099,82.881
			l-1.953-4.521l-1.938,4.521H422.099z"/>
		<path d="M429.328,77.908h-3.584v-1.84h9.17v1.84h-3.584v9.46h-2.002V77.908z"/>
		<path d="M437.123,76.068h1.985v11.301h-1.985V76.068z"/>
		<path d="M441.625,81.75v-0.032c0-3.18,2.454-5.844,5.925-5.844c3.472,0,5.893,2.632,5.893,5.812v0.032
			c0,3.18-2.454,5.844-5.925,5.844S441.625,84.931,441.625,81.75z M451.36,81.75v-0.032c0-2.195-1.599-4.02-3.843-4.02
			s-3.81,1.792-3.81,3.987v0.032c0,2.196,1.598,4.004,3.842,4.004S451.36,83.946,451.36,81.75z"/>
		<path d="M455.844,76.068h1.84l6.055,7.814v-7.814h1.953v11.301h-1.663l-6.231-8.04v8.04h-1.953V76.068z"/>
	</g>
	<g>
		<path d="M353.925,247.634h2.114l3.439,5.344l3.438-5.344h2.114v11.301h-1.985v-8.104l-3.567,5.327h-0.065l-3.535-5.295v8.071
			h-1.953V247.634z"/>
		<path d="M371.938,247.553h1.84l4.973,11.381h-2.099l-1.146-2.729h-5.344l-1.162,2.729h-2.034L371.938,247.553z M374.778,254.447
			l-1.953-4.521l-1.938,4.521H374.778z"/>
		<path d="M379.731,257.288l1.194-1.421c1.082,0.937,2.18,1.47,3.568,1.47c1.227,0,2.001-0.581,2.001-1.421v-0.032
			c0-0.808-0.451-1.243-2.551-1.728c-2.405-0.581-3.761-1.291-3.761-3.374v-0.032c0-1.938,1.614-3.277,3.858-3.277
			c1.646,0,2.954,0.501,4.101,1.421l-1.065,1.501c-1.018-0.759-2.034-1.162-3.067-1.162c-1.163,0-1.841,0.598-1.841,1.34v0.032
			c0,0.872,0.517,1.26,2.696,1.776c2.389,0.581,3.616,1.437,3.616,3.309v0.033c0,2.114-1.663,3.374-4.036,3.374
			C382.718,259.096,381.087,258.499,379.731,257.288z"/>
		<path d="M393.354,249.474h-3.584v-1.841h9.17v1.841h-3.584v9.46h-2.002V249.474z"/>
		<path d="M401.035,247.634h8.379v1.776h-6.394v2.938h5.667v1.775h-5.667v3.035h6.474v1.775h-8.459V247.634z"/>
		<path d="M411.849,247.634h5.037c1.42,0,2.534,0.42,3.261,1.131c0.598,0.613,0.937,1.452,0.937,2.438v0.032
			c0,1.856-1.114,2.971-2.68,3.422l3.051,4.278h-2.357l-2.776-3.938h-2.486v3.938h-1.985V247.634z M416.74,253.236
			c1.421,0,2.324-0.743,2.324-1.889v-0.032c0-1.211-0.871-1.873-2.341-1.873h-2.89v3.794H416.74z"/>
		<path d="M427.6,257.288l1.194-1.421c1.082,0.937,2.18,1.47,3.568,1.47c1.227,0,2.001-0.581,2.001-1.421v-0.032
			c0-0.808-0.451-1.243-2.55-1.728c-2.406-0.581-3.762-1.291-3.762-3.374v-0.032c0-1.938,1.614-3.277,3.858-3.277
			c1.646,0,2.954,0.501,4.101,1.421l-1.065,1.501c-1.018-0.759-2.034-1.162-3.067-1.162c-1.163,0-1.841,0.598-1.841,1.34v0.032
			c0,0.872,0.517,1.26,2.696,1.776c2.389,0.581,3.616,1.437,3.616,3.309v0.033c0,2.114-1.663,3.374-4.036,3.374
			C430.586,259.096,428.955,258.499,427.6,257.288z"/>
		<path d="M438.688,247.634h8.379v1.776h-6.394v2.938h5.667v1.775h-5.667v3.035h6.474v1.775h-8.459V247.634z"/>
		<path d="M449.501,247.634h5.037c1.42,0,2.534,0.42,3.261,1.131c0.598,0.613,0.937,1.452,0.937,2.438v0.032
			c0,1.856-1.114,2.971-2.68,3.422l3.051,4.278h-2.357l-2.776-3.938h-2.486v3.938h-1.985V247.634z M454.393,253.236
			c1.421,0,2.324-0.743,2.324-1.889v-0.032c0-1.211-0.871-1.873-2.341-1.873h-2.89v3.794H454.393z"/>
		<path d="M459.878,247.634h2.195l3.406,8.686l3.391-8.686h2.146l-4.682,11.382h-1.759L459.878,247.634z"/>
		<path d="M472.951,247.634h8.379v1.776h-6.394v2.938h5.667v1.775h-5.667v3.035h6.474v1.775h-8.459V247.634z"/>
		<path d="M483.765,247.634h5.037c1.42,0,2.534,0.42,3.261,1.131c0.598,0.613,0.937,1.452,0.937,2.438v0.032
			c0,1.856-1.114,2.971-2.68,3.422l3.051,4.278h-2.357l-2.776-3.938h-2.486v3.938h-1.985V247.634z M488.656,253.236
			c1.421,0,2.324-0.743,2.324-1.889v-0.032c0-1.211-0.871-1.873-2.341-1.873h-2.89v3.794H488.656z"/>
	</g>
	<g>
		<path d="M280.469,566.995h2.678v15.242h-2.678V566.995z"/>
		<path d="M287.217,566.995h2.482l8.166,10.539v-10.539h2.635v15.242h-2.243l-8.405-10.844v10.844h-2.635V566.995z"/>
		<path d="M303.675,574.267h6.446v2.592h-6.446V574.267z"/>
		<path d="M313.298,566.995h2.853l4.638,7.207l4.638-7.207h2.853v15.242h-2.678v-10.931l-4.812,7.186h-0.087l-4.769-7.142v10.887
			h-2.635V566.995z"/>
		<path d="M332.194,566.995h11.301v2.396h-8.623v3.963h7.644v2.396h-7.644v4.093h8.732v2.396h-11.41V566.995z"/>
		<path d="M346.78,566.995h2.853l4.638,7.207l4.638-7.207h2.853v15.242h-2.678v-10.931l-4.812,7.186h-0.087l-4.769-7.142v10.887
			h-2.635V566.995z"/>
		<path d="M365.002,574.66v-0.044c0-4.289,3.31-7.882,7.991-7.882s7.947,3.549,7.947,7.839v0.043c0,4.29-3.31,7.883-7.991,7.883
			S365.002,578.949,365.002,574.66z M378.132,574.66v-0.044c0-2.961-2.156-5.422-5.183-5.422s-5.139,2.417-5.139,5.379v0.043
			c0,2.961,2.155,5.4,5.183,5.4C376.02,580.016,378.132,577.621,378.132,574.66z"/>
		<path d="M384.181,566.995h6.794c1.916,0,3.418,0.566,4.398,1.524c0.806,0.827,1.263,1.96,1.263,3.288v0.043
			c0,2.505-1.502,4.007-3.614,4.616l4.115,5.771h-3.179l-3.746-5.312h-3.353v5.312h-2.679V566.995z M390.778,574.551
			c1.916,0,3.136-1.001,3.136-2.548v-0.043c0-1.633-1.176-2.526-3.157-2.526h-3.897v5.117H390.778z"/>
		<path d="M403.862,576.227l-6.054-9.232h3.18l4.246,6.729l4.311-6.729h3.07l-6.053,9.167v6.075h-2.7V576.227z"/>
		<path d="M421.495,566.995h5.683c4.791,0,8.101,3.288,8.101,7.578v0.043c0,4.29-3.31,7.621-8.101,7.621h-5.683V566.995z
			 M424.173,569.433v10.365h3.005c3.201,0,5.291-2.156,5.291-5.139v-0.044c0-2.983-2.09-5.183-5.291-5.183H424.173z"/>
		<path d="M442.853,566.886h2.482l6.707,15.351h-2.831l-1.546-3.68h-7.207l-1.568,3.68h-2.743L442.853,566.886z M446.686,576.183
			l-2.635-6.097l-2.613,6.097H446.686z"/>
		<path d="M456.437,569.477h-4.834v-2.482h12.367v2.482h-4.833v12.76h-2.7V569.477z"/>
		<path d="M470.239,566.886h2.482l6.707,15.351h-2.831l-1.546-3.68h-7.207l-1.568,3.68h-2.743L470.239,566.886z M474.072,576.183
			l-2.635-6.097l-2.613,6.097H474.072z"/>
		<path d="M482.038,566.995h6.837c1.742,0,3.113,0.479,3.984,1.351c0.675,0.675,1.023,1.502,1.023,2.525v0.044
			c0,1.829-1.045,2.809-2.177,3.396c1.785,0.609,3.026,1.633,3.026,3.701v0.044c0,2.722-2.243,4.181-5.64,4.181h-7.055V566.995z
			 M491.205,571.306c0-1.197-0.958-1.938-2.679-1.938h-3.854v4.05h3.658c1.72,0,2.874-0.675,2.874-2.068V571.306z M488.919,575.683
			h-4.246v4.181h4.441c1.829,0,2.939-0.719,2.939-2.091v-0.043C492.054,576.445,491.03,575.683,488.919,575.683z"/>
		<path d="M503.155,566.886h2.482l6.707,15.351h-2.831l-1.546-3.68h-7.207l-1.568,3.68h-2.743L503.155,566.886z M506.988,576.183
			l-2.635-6.097l-2.613,6.097H506.988z"/>
		<path d="M513.67,580.016l1.611-1.916c1.459,1.263,2.939,1.981,4.812,1.981c1.655,0,2.7-0.784,2.7-1.917v-0.043
			c0-1.089-0.609-1.677-3.44-2.33c-3.244-0.784-5.073-1.742-5.073-4.551v-0.044c0-2.612,2.178-4.42,5.204-4.42
			c2.221,0,3.984,0.675,5.53,1.916l-1.437,2.025c-1.372-1.023-2.744-1.567-4.138-1.567c-1.567,0-2.481,0.806-2.481,1.807v0.044
			c0,1.176,0.696,1.698,3.636,2.395c3.223,0.784,4.878,1.938,4.878,4.464v0.044c0,2.853-2.243,4.551-5.444,4.551
			C517.698,582.455,515.499,581.649,513.67,580.016z"/>
		<path d="M528.626,566.995h11.301v2.396h-8.623v3.963h7.643v2.396h-7.643v4.093h8.731v2.396h-11.409V566.995z"/>
	</g>
	<linearGradient id="SVGID_3_" gradientUnits="userSpaceOnUse" x1="0" y1="156.5661" x2="819.0342" y2="156.5661">
		<stop  offset="0" style="stop-color:#17C9C0"/>
		<stop  offset="0.1678" style="stop-color:#00A9D7"/>
		<stop  offset="0.5644" style="stop-color:#1CD0BB"/>
		<stop  offset="1" style="stop-color:#0FBEC8"/>
	</linearGradient>
	<path class="st4" d="M819.034,161.566h-5.512v-10h5.512V161.566z M808.187,161.566h-5.511v-10h5.511V161.566z M797.34,161.566
		h-5.511v-10h5.511V161.566z M786.493,161.566h-5.512v-10h5.512V161.566z M775.646,161.566h-5.511v-10h5.511V161.566z
		 M764.799,161.566h-5.511v-10h5.511V161.566z M753.952,161.566h-5.511v-10h5.511V161.566z M743.105,161.566h-5.512v-10h5.512
		V161.566z M732.258,161.566h-5.511v-10h5.511V161.566z M721.411,161.566H715.9v-10h5.511V161.566z M710.564,161.566h-5.512v-10
		h5.512V161.566z M699.717,161.566h-5.511v-10h5.511V161.566z M688.87,161.566h-5.511v-10h5.511V161.566z M678.023,161.566h-5.512
		v-10h5.512V161.566z M667.176,161.566h-5.511v-10h5.511V161.566z M656.329,161.566h-5.511v-10h5.511V161.566z M645.482,161.566
		h-5.511v-10h5.511V161.566z M634.636,161.566h-5.512v-10h5.512V161.566z M623.788,161.566h-5.511v-10h5.511V161.566z
		 M612.941,161.566h-5.511v-10h5.511V161.566z M602.095,161.566h-5.512v-10h5.512V161.566z M591.247,161.566h-5.511v-10h5.511
		V161.566z M580.4,161.566h-5.511v-10h5.511V161.566z M569.554,161.566h-5.511v-10h5.511V161.566z M558.706,161.566h-5.511v-10
		h5.511V161.566z M547.859,161.566h-5.511v-10h5.511V161.566z M537.013,161.566h-5.511v-10h5.511V161.566z M526.166,161.566h-5.512
		v-10h5.512V161.566z M515.318,161.566h-5.511v-10h5.511V161.566z M504.472,161.566h-5.511v-10h5.511V161.566z M493.625,161.566
		h-5.512v-10h5.512V161.566z M482.777,161.566h-5.511v-10h5.511V161.566z M471.931,161.566h-5.511v-10h5.511V161.566z
		 M461.084,161.566h-5.512v-10h5.512V161.566z M450.236,161.566h-5.511v-10h5.511V161.566z M439.39,161.566h-5.511v-10h5.511
		V161.566z M428.543,161.566h-5.511v-10h5.511V161.566z M417.696,161.566h-5.512v-10h5.512V161.566z M406.849,161.566h-5.511v-10
		h5.511V161.566z M396.002,161.566h-5.511v-10h5.511V161.566z M385.155,161.566h-5.512v-10h5.512V161.566z M374.308,161.566h-5.511
		v-10h5.511V161.566z M363.461,161.566h-5.511v-10h5.511V161.566z M352.614,161.566h-5.511v-10h5.511V161.566z M341.768,161.566
		h-5.512v-10h5.512V161.566z M330.92,161.566h-5.511v-10h5.511V161.566z M320.073,161.566h-5.511v-10h5.511V161.566z
		 M309.227,161.566h-5.511v-10h5.511V161.566z M298.379,161.566h-5.511v-10h5.511V161.566z M287.532,161.566h-5.511v-10h5.511
		V161.566z M276.685,161.566h-5.511v-10h5.511V161.566z M265.838,161.566h-5.511v-10h5.511V161.566z M254.991,161.566h-5.511v-10
		h5.511V161.566z M244.145,161.566h-5.511v-10h5.511V161.566z M233.297,161.566h-5.511v-10h5.511V161.566z M222.45,161.566h-5.511
		v-10h5.511V161.566z M211.604,161.566h-5.511v-10h5.511V161.566z M200.756,161.566h-5.511v-10h5.511V161.566z M189.91,161.566
		h-5.511v-10h5.511V161.566z M179.062,161.566h-5.511v-10h5.511V161.566z M168.215,161.566h-5.511v-10h5.511V161.566z
		 M157.369,161.566h-5.511v-10h5.511V161.566z M146.521,161.566h-5.511v-10h5.511V161.566z M135.675,161.566h-5.511v-10h5.511
		V161.566z M124.828,161.566h-5.511v-10h5.511V161.566z M113.98,161.566h-5.511v-10h5.511V161.566z M103.134,161.566h-5.511v-10
		h5.511V161.566z M92.287,161.566h-5.511v-10h5.511V161.566z M81.44,161.566h-5.511v-10h5.511V161.566z M70.593,161.566h-5.511v-10
		h5.511V161.566z M59.746,161.566h-5.511v-10h5.511V161.566z M48.899,161.566h-5.511v-10h5.511V161.566z M38.052,161.566h-5.511v-10
		h5.511V161.566z M27.205,161.566h-5.511v-10h5.511V161.566z M16.358,161.566h-5.511v-10h5.511V161.566z M5.511,161.566H0v-10h5.511
		V161.566z"/>
	<g>
		<g>
			<g>
				<path class="st5" d="M411.805,186.365h-4v-5.511h4V186.365z M411.805,175.518h-4v-5.511h4V175.518z M411.805,164.672h-4v-5.51h4
					V164.672z M411.805,153.825h-4v-5.511h4V153.825z M411.805,142.979h-4v-5.51h4V142.979z M411.805,132.133h-4v-5.511h4V132.133z"
					/>
				<g>
					<polygon class="st5" points="414.791,184.906 409.805,193.541 404.818,184.906 					"/>
				</g>
				<g>
					<polygon class="st5" points="414.791,127.823 409.805,119.188 404.818,127.823 					"/>
				</g>
			</g>
		</g>
	</g>
	<linearGradient id="SVGID_4_" gradientUnits="userSpaceOnUse" x1="43.8841" y1="517.2947" x2="206.776" y2="423.249">
		<stop  offset="0" style="stop-color:#17C9C0"/>
		<stop  offset="0.6524" style="stop-color:#00A9D7"/>
	</linearGradient>
	<rect x="48.094" y="415.957" class="st6" width="154.472" height="108.629"/>
	<linearGradient id="SVGID_5_" gradientUnits="userSpaceOnUse" x1="233.5339" y1="517.2947" x2="396.4258" y2="423.249">
		<stop  offset="0" style="stop-color:#00A9D7"/>
		<stop  offset="1" style="stop-color:#17C9C0"/>
	</linearGradient>
	<rect x="237.744" y="415.957" class="st7" width="154.472" height="108.629"/>
	<linearGradient id="SVGID_6_" gradientUnits="userSpaceOnUse" x1="423.1837" y1="517.2947" x2="586.0756" y2="423.249">
		<stop  offset="0.1206" style="stop-color:#06B2D1"/>
		<stop  offset="0.6188" style="stop-color:#1CD0BB"/>
		<stop  offset="1" style="stop-color:#0FBEC8"/>
	</linearGradient>
	<rect x="427.394" y="415.957" class="st8" width="154.472" height="108.629"/>
	<linearGradient id="SVGID_7_" gradientUnits="userSpaceOnUse" x1="612.8335" y1="517.2947" x2="775.7254" y2="423.249">
		<stop  offset="0.1359" style="stop-color:#1CD0BB"/>
		<stop  offset="1" style="stop-color:#0FBEC8"/>
	</linearGradient>
	<rect x="617.043" y="415.957" class="st9" width="154.472" height="108.629"/>
	<g>
		<path class="st5" d="M317.869,398.139l-3.881-0.973c0.475-1.891,1.117-3.751,1.911-5.53l3.652,1.631
			C318.853,394.834,318.286,396.473,317.869,398.139z M321.965,388.895l-3.33-2.217c1.079-1.619,2.308-3.156,3.652-4.568
			l2.896,2.758C323.998,386.113,322.915,387.469,321.965,388.895z M328.917,381.548l-2.398-3.201
			c1.562-1.171,3.234-2.211,4.967-3.09l1.811,3.566C331.769,379.598,330.295,380.514,328.917,381.548z M337.922,376.948l-1.186-3.82
			c1.857-0.576,3.781-0.994,5.717-1.241l0.506,3.969C341.253,376.072,339.559,376.44,337.922,376.948z M348.107,375.588
			l-0.156-3.996c1.719-0.068,3.439-0.285,5.115-0.646l0.842,3.91C352.008,375.265,350.057,375.511,348.107,375.588z
			 M359.326,373.199l-1.488-3.713c1.59-0.637,3.137-1.42,4.598-2.326l2.109,3.398C362.887,371.588,361.131,372.476,359.326,373.199z
			 M369.088,367.181l-2.645-3c1.288-1.136,2.486-2.392,3.562-3.732l3.119,2.504C371.906,364.471,370.548,365.894,369.088,367.181z
			 M376.287,358.255l-3.494-1.949c0.837-1.498,1.546-3.081,2.108-4.704l3.779,1.311
			C378.042,354.755,377.236,356.552,376.287,358.255z M380.08,347.422l-3.945-0.656c0.269-1.62,0.405-3.279,0.405-4.932v-0.225h4
			v0.225C380.54,343.705,380.386,345.585,380.08,347.422z M380.54,336.273h-4v-5.511h4V336.273z M380.54,325.427h-4v-5.511h4
			V325.427z"/>
		<g>
			<polygon class="st5" points="373.554,321.375 378.54,312.74 383.526,321.375 			"/>
		</g>
		<g>
			<polygon class="st5" points="310.434,399.872 314.98,408.747 320.394,400.373 			"/>
		</g>
	</g>
	<g>
		<path class="st5" d="M129.874,401.571h-4v-1.831h4V401.571z M129.874,394.404h-4v-5.51h4V394.404z M129.874,383.558h-4v-5.511h4
			V383.558z M130.061,372.944l-3.976-0.445c0.218-1.94,0.606-3.87,1.154-5.735l3.838,1.127
			C130.594,369.534,130.252,371.234,130.061,372.944z M132.883,363.239l-3.593-1.758c0.854-1.746,1.869-3.432,3.014-5.01l3.237,2.35
			C134.53,360.213,133.636,361.699,132.883,363.239z M138.802,355.039l-2.801-2.855c1.391-1.364,2.909-2.616,4.512-3.721
			l2.269,3.295C141.368,352.731,140.029,353.836,138.802,355.039z M147.118,349.279l-1.687-3.627
			c1.767-0.821,3.618-1.493,5.503-1.995l1.03,3.865C150.304,347.965,148.673,348.555,147.118,349.279z M156.878,346.647
			l-0.367-3.982c1.038-0.096,2.095-0.145,3.143-0.145h2.546v4h-2.546C158.729,346.52,157.795,346.563,156.878,346.647z
			 M303.205,346.52h-5.511v-4h5.511V346.52z M292.358,346.52h-5.511v-4h5.511V346.52z M281.512,346.52h-5.51v-4h5.51V346.52z
			 M270.666,346.52h-5.511v-4h5.511V346.52z M259.819,346.52h-5.511v-4h5.511V346.52z M248.972,346.52h-5.51v-4h5.51V346.52z
			 M238.125,346.52h-5.51v-4h5.51V346.52z M227.279,346.52h-5.511v-4h5.511V346.52z M216.433,346.52h-5.511v-4h5.511V346.52z
			 M205.586,346.52h-5.51v-4h5.51V346.52z M194.74,346.52h-5.511v-4h5.511V346.52z M183.893,346.52h-5.511v-4h5.511V346.52z
			 M173.046,346.52h-5.51v-4h5.51V346.52z M308.814,346.158l-0.582-3.957c1.699-0.25,3.386-0.65,5.014-1.191l1.26,3.797
			C312.658,345.42,310.743,345.875,308.814,346.158z M319.715,342.573l-1.881-3.529c1.515-0.808,2.969-1.753,4.323-2.81l2.461,3.154
			C323.082,340.587,321.433,341.658,319.715,342.573z M328.777,335.546l-2.951-2.701c1.162-1.269,2.22-2.645,3.145-4.091
			l3.369,2.154C331.292,332.548,330.093,334.108,328.777,335.546z M334.979,325.895l-3.684-1.561
			c0.669-1.579,1.203-3.229,1.587-4.902l3.898,0.895C336.345,322.227,335.739,324.101,334.979,325.895z"/>
		<g>
			<polygon class="st5" points="329.542,320.632 335.637,312.74 339.425,321.964 			"/>
		</g>
		<g>
			<polygon class="st5" points="122.887,400.111 127.874,408.747 132.86,400.111 			"/>
		</g>
	</g>
	<g>
		<path class="st5" d="M508.267,398.138c-0.416-1.664-0.982-3.304-1.682-4.871l3.652-1.631c0.795,1.781,1.438,3.642,1.91,5.531
			L508.267,398.138z M504.173,388.896c-0.949-1.426-2.033-2.781-3.22-4.028l2.898-2.758c1.345,1.414,2.573,2.951,3.651,4.569
			L504.173,388.896z M497.221,381.548c-1.378-1.033-2.852-1.949-4.379-2.725l1.811-3.566c1.732,0.879,3.404,1.919,4.967,3.09
			L497.221,381.548z M488.216,376.948c-1.637-0.508-3.331-0.876-5.037-1.093l0.506-3.969c1.936,0.247,3.859,0.665,5.717,1.241
			L488.216,376.948z M478.03,375.588c-1.949-0.076-3.9-0.322-5.801-0.731l0.842-3.91c1.676,0.36,3.396,0.577,5.115,0.646
			L478.03,375.588z M466.812,373.199c-1.805-0.723-3.561-1.611-5.219-2.641l2.109-3.398c1.461,0.906,3.008,1.689,4.598,2.326
			L466.812,373.199z M457.05,367.181c-1.46-1.287-2.818-2.71-4.037-4.229l3.119-2.504c1.076,1.341,2.274,2.597,3.562,3.732
			L457.05,367.181z M449.851,358.255c-0.949-1.702-1.755-3.5-2.394-5.343l3.779-1.311c0.562,1.623,1.271,3.206,2.108,4.704
			L449.851,358.255z M446.058,347.422c-0.306-1.837-0.46-3.717-0.46-5.588v-0.225h4v0.225c0,1.652,0.137,3.312,0.405,4.932
			L446.058,347.422z M449.598,336.273h-4v-5.511h4V336.273z M449.598,325.427h-4v-5.511h4V325.427z"/>
		<g>
			<polygon class="st5" points="442.611,321.375 447.598,312.74 452.584,321.375 			"/>
		</g>
		<g>
			<polygon class="st5" points="505.744,400.373 511.158,408.747 515.704,399.872 			"/>
		</g>
	</g>
	<g>
		<path class="st5" d="M700.264,401.571h-4v-1.83h4V401.571z M700.264,394.405h-4v-5.511h4V394.405z M700.264,383.558h-4v-5.511h4
			V383.558z M696.078,372.946c-0.192-1.712-0.535-3.412-1.018-5.054l3.838-1.129c0.548,1.864,0.937,3.794,1.154,5.735
			L696.078,372.946z M693.254,363.238c-0.752-1.539-1.646-3.024-2.656-4.417l3.236-2.35c1.146,1.578,2.161,3.265,3.014,5.011
			L693.254,363.238z M687.336,355.039c-1.226-1.202-2.564-2.307-3.98-3.281l2.27-3.295c1.604,1.105,3.123,2.357,4.512,3.721
			L687.336,355.039z M679.02,349.279c-1.558-0.724-3.188-1.314-4.847-1.757l1.029-3.865c1.884,0.502,3.735,1.173,5.503,1.995
			L679.02,349.279z M669.259,346.647c-0.916-0.084-1.85-0.127-2.774-0.127h-2.547v-4h2.547c1.047,0,2.104,0.049,3.142,0.145
			L669.259,346.647z M658.602,346.52h-5.511v-4h5.511V346.52z M647.755,346.52h-5.51v-4h5.51V346.52z M636.908,346.52h-5.51v-4h5.51
			V346.52z M626.062,346.52h-5.511v-4h5.511V346.52z M615.216,346.52h-5.511v-4h5.511V346.52z M604.369,346.52h-5.511v-4h5.511
			V346.52z M593.522,346.52h-5.511v-4h5.511V346.52z M582.676,346.52h-5.511v-4h5.511V346.52z M571.829,346.52h-5.51v-4h5.51V346.52
			z M560.983,346.52h-5.511v-4h5.511V346.52z M550.137,346.52h-5.511v-4h5.511V346.52z M539.29,346.52h-5.511v-4h5.511V346.52z
			 M528.443,346.52h-5.511v-4h5.511V346.52z M517.323,346.158c-1.929-0.283-3.844-0.738-5.691-1.352l1.26-3.797
			c1.628,0.541,3.314,0.941,5.014,1.191L517.323,346.158z M506.423,342.573c-1.718-0.915-3.367-1.986-4.903-3.185l2.461-3.154
			c1.354,1.057,2.809,2.002,4.323,2.81L506.423,342.573z M497.36,335.546c-1.315-1.438-2.515-2.998-3.562-4.638l3.369-2.154
			c0.925,1.446,1.982,2.822,3.145,4.091L497.36,335.546z M491.158,325.895c-0.76-1.794-1.365-3.668-1.802-5.568l3.898-0.895
			c0.384,1.674,0.918,3.323,1.587,4.902L491.158,325.895z"/>
		<g>
			<polygon class="st5" points="486.713,321.964 490.501,312.74 496.596,320.632 			"/>
		</g>
		<g>
			<polygon class="st5" points="693.278,400.111 698.264,408.747 703.25,400.111 			"/>
		</g>
	</g>
	<g>
		<path class="st5" d="M325.779,238.927c0.275,0,0.507,0.232,0.507,0.507v3.755c0,0.275-0.232,0.507-0.507,0.507h-41.678
			c-0.275,0-0.507-0.232-0.507-0.507v-3.755c0-0.275,0.232-0.507,0.507-0.507H325.779 M325.779,236.927h-41.678
			c-1.379,0-2.507,1.128-2.507,2.507v3.755c0,1.379,1.128,2.507,2.507,2.507h41.678c1.379,0,2.507-1.128,2.507-2.507v-3.755
			C328.286,238.055,327.158,236.927,325.779,236.927L325.779,236.927z"/>
		<path class="st5" d="M325.779,260.948c0.275,0,0.507,0.232,0.507,0.507v3.755c0,0.275-0.232,0.507-0.507,0.507h-41.678
			c-0.275,0-0.507-0.232-0.507-0.507v-3.755c0-0.275,0.232-0.507,0.507-0.507H325.779 M325.779,258.948h-41.678
			c-1.379,0-2.507,1.128-2.507,2.507v3.755c0,1.379,1.128,2.507,2.507,2.507h41.678c1.379,0,2.507-1.128,2.507-2.507v-3.755
			C328.286,260.076,327.158,258.948,325.779,258.948L325.779,258.948z"/>
		<circle class="st10" cx="304.94" cy="241.311" r="1.139"/>
		<circle class="st10" cx="304.94" cy="241.311" r="1.139"/>
		<circle class="st10" cx="304.94" cy="252.322" r="1.139"/>
		<circle class="st10" cx="304.94" cy="252.322" r="1.139"/>
		<circle class="st10" cx="304.94" cy="263.332" r="1.139"/>
		<circle class="st10" cx="304.94" cy="263.332" r="1.139"/>
		<circle class="st10" cx="304.94" cy="274.343" r="1.139"/>
		<circle class="st10" cx="304.94" cy="274.343" r="1.139"/>
		<path class="st5" d="M325.779,249.937c0.275,0,0.507,0.232,0.507,0.507v3.755c0,0.275-0.232,0.507-0.507,0.507h-41.678
			c-0.275,0-0.507-0.232-0.507-0.507v-3.755c0-0.275,0.232-0.507,0.507-0.507H325.779 M325.779,247.937h-41.678
			c-1.379,0-2.507,1.128-2.507,2.507v3.755c0,1.379,1.128,2.507,2.507,2.507h41.678c1.379,0,2.507-1.128,2.507-2.507v-3.755
			C328.286,249.065,327.158,247.937,325.779,247.937L325.779,247.937z"/>
		<path class="st5" d="M325.779,271.959c0.275,0,0.507,0.232,0.507,0.507v3.755c0,0.275-0.232,0.507-0.507,0.507h-41.678
			c-0.275,0-0.507-0.232-0.507-0.507v-3.755c0-0.275,0.232-0.507,0.507-0.507H325.779 M325.779,269.959h-41.678
			c-1.379,0-2.507,1.128-2.507,2.507v3.755c0,1.379,1.128,2.507,2.507,2.507h41.678c1.379,0,2.507-1.128,2.507-2.507v-3.755
			C328.286,271.087,327.158,269.959,325.779,269.959L325.779,269.959z"/>
		<rect x="303.94" y="244.954" class="st5" width="2" height="3.725"/>
		<circle class="st10" cx="304.94" cy="230.599" r="1.139"/>
		<circle class="st10" cx="304.94" cy="230.599" r="1.139"/>
		<path class="st5" d="M325.779,228.214c0.275,0,0.507,0.232,0.507,0.507v3.755c0,0.275-0.232,0.507-0.507,0.507h-41.678
			c-0.275,0-0.507-0.232-0.507-0.507v-3.755c0-0.275,0.232-0.507,0.507-0.507H325.779 M325.779,226.214h-41.678
			c-1.379,0-2.507,1.128-2.507,2.507v3.755c0,1.379,1.128,2.507,2.507,2.507h41.678c1.379,0,2.507-1.128,2.507-2.507v-3.755
			C328.286,227.342,327.158,226.214,325.779,226.214L325.779,226.214z"/>
		<rect x="303.94" y="234.242" class="st5" width="2" height="3.725"/>
		<rect x="303.94" y="255.965" class="st5" width="2" height="3.725"/>
		<rect x="303.94" y="267.064" class="st5" width="2" height="3.725"/>
	</g>
	<g>
		<path class="st1" d="M67.173,440.2h7.175c2.023,0,3.61,0.598,4.645,1.609c0.852,0.874,1.334,2.069,1.334,3.473v0.046
			c0,2.645-1.587,4.231-3.817,4.875l4.347,6.094h-3.357l-3.955-5.611h-3.542v5.611h-2.828V440.2z M74.141,448.179
			c2.023,0,3.312-1.058,3.312-2.69v-0.046c0-1.725-1.242-2.668-3.335-2.668h-4.116v5.404H74.141z"/>
		<path class="st1" d="M89.505,440.085h2.621l7.083,16.212H96.22l-1.633-3.887h-7.611l-1.656,3.887h-2.897L89.505,440.085z
			 M93.552,449.904l-2.782-6.438l-2.76,6.438H93.552z"/>
		<path class="st1" d="M101.972,440.2h3.013l4.897,7.611l4.898-7.611h3.012v16.097h-2.828v-11.544l-5.082,7.589h-0.092l-5.036-7.543
			v11.498h-2.782V440.2z"/>
		<path class="st1" d="M121.545,444.155h3.059v3.15h-3.059V444.155z M121.545,453.123h3.059v3.174h-3.059V453.123z"/>
		<path class="st1" d="M66.634,469.951h4.437c3.739,0,6.323,2.567,6.323,5.916v0.034c0,3.349-2.584,5.949-6.323,5.949h-4.437
			V469.951z M68.725,471.855v8.091h2.346c2.498,0,4.13-1.683,4.13-4.012v-0.033c0-2.329-1.632-4.046-4.13-4.046H68.725z"/>
		<path class="st1" d="M83.31,469.866h1.938l5.235,11.984h-2.21l-1.207-2.873h-5.626l-1.225,2.873h-2.142L83.31,469.866z
			 M86.302,477.125l-2.057-4.76l-2.04,4.76H86.302z"/>
		<path class="st1" d="M93.918,471.889h-3.773v-1.938H99.8v1.938h-3.773v9.961h-2.108V471.889z"/>
		<path class="st1" d="M104.696,469.866h1.938l5.235,11.984h-2.21l-1.207-2.873h-5.626l-1.225,2.873H99.46L104.696,469.866z
			 M107.688,477.125l-2.057-4.76l-2.04,4.76H107.688z"/>
		<path class="st1" d="M66.634,495.505h4.691c2.787,0,4.521,1.581,4.521,3.978v0.034c0,2.669-2.142,4.062-4.76,4.062h-2.362v3.824
			h-2.091V495.505z M71.156,501.692c1.58,0,2.566-0.884,2.566-2.125v-0.034c0-1.394-1.003-2.125-2.566-2.125h-2.431v4.284H71.156z"
			/>
		<path class="st1" d="M81.015,495.42h1.938l5.235,11.983h-2.21l-1.207-2.872h-5.626l-1.225,2.872H75.78L81.015,495.42z
			 M84.007,502.677l-2.057-4.759l-2.04,4.759H84.007z"/>
		<path class="st1" d="M90.23,495.505h5.303c1.496,0,2.669,0.441,3.434,1.189c0.629,0.646,0.986,1.53,0.986,2.567v0.033
			c0,1.955-1.173,3.128-2.821,3.604l3.212,4.504h-2.481l-2.924-4.147h-2.617v4.147H90.23V495.505z M95.38,501.403
			c1.495,0,2.447-0.782,2.447-1.989v-0.034c0-1.274-0.918-1.972-2.465-1.972h-3.042v3.995H95.38z"/>
		<path class="st1" d="M105.393,497.442h-3.773v-1.938h9.655v1.938h-3.773v9.961h-2.108V497.442z"/>
		<path class="st1" d="M113.604,495.505h2.091v11.898h-2.091V495.505z"/>
		<path class="st1" d="M121.797,497.442h-3.773v-1.938h9.655v1.938h-3.773v9.961h-2.108V497.442z"/>
		<path class="st1" d="M130.009,495.505h2.091v11.898h-2.091V495.505z"/>
		<path class="st1" d="M134.752,501.488v-0.034c0-3.349,2.584-6.153,6.238-6.153s6.204,2.771,6.204,6.119v0.034
			c0,3.349-2.583,6.153-6.238,6.153C137.302,507.607,134.752,504.837,134.752,501.488z M145.002,501.488v-0.034
			c0-2.312-1.683-4.232-4.046-4.232c-2.362,0-4.012,1.887-4.012,4.198v0.034c0,2.312,1.684,4.216,4.046,4.216
			C143.354,505.67,145.002,503.8,145.002,501.488z"/>
		<path class="st1" d="M149.73,495.505h1.938l6.374,8.227v-8.227h2.057v11.898h-1.75l-6.562-8.465v8.465h-2.057V495.505z"/>
		<path class="st1" d="M169.754,497.545l-2.142,0.595l-0.441-1.7l3.212-1.02h1.445v11.983h-2.074V497.545z"/>
	</g>
	<g>
		<path class="st1" d="M256.832,440.2h7.175c2.023,0,3.61,0.598,4.645,1.609c0.852,0.874,1.334,2.069,1.334,3.473v0.046
			c0,2.645-1.587,4.231-3.817,4.875l4.347,6.094h-3.357l-3.955-5.611h-3.542v5.611h-2.828V440.2z M263.799,448.179
			c2.023,0,3.312-1.058,3.312-2.69v-0.046c0-1.725-1.242-2.668-3.335-2.668h-4.116v5.404H263.799z"/>
		<path class="st1" d="M279.164,440.085h2.621l7.083,16.212h-2.989l-1.633-3.887h-7.611l-1.656,3.887h-2.897L279.164,440.085z
			 M283.21,449.904l-2.782-6.438l-2.76,6.438H283.21z"/>
		<path class="st1" d="M291.63,440.2h3.013l4.897,7.611l4.898-7.611h3.011v16.097h-2.828v-11.544l-5.082,7.589h-0.092l-5.036-7.543
			v11.498h-2.782V440.2z"/>
		<path class="st1" d="M311.203,444.155h3.059v3.15h-3.059V444.155z M311.203,453.123h3.059v3.174h-3.059V453.123z"/>
		<path class="st1" d="M256.292,469.951h4.437c3.739,0,6.323,2.567,6.323,5.916v0.034c0,3.349-2.584,5.949-6.323,5.949h-4.437
			V469.951z M258.383,471.855v8.091h2.346c2.498,0,4.13-1.683,4.13-4.012v-0.033c0-2.329-1.632-4.046-4.13-4.046H258.383z"/>
		<path class="st1" d="M272.968,469.866h1.938l5.235,11.984h-2.21l-1.207-2.873h-5.626l-1.225,2.873h-2.142L272.968,469.866z
			 M275.96,477.125l-2.057-4.76l-2.04,4.76H275.96z"/>
		<path class="st1" d="M283.577,471.889h-3.773v-1.938h9.655v1.938h-3.773v9.961h-2.108V471.889z"/>
		<path class="st1" d="M294.354,469.866h1.938l5.235,11.984h-2.21l-1.207-2.873h-5.626l-1.225,2.873h-2.142L294.354,469.866z
			 M297.346,477.125l-2.057-4.76l-2.04,4.76H297.346z"/>
		<path class="st1" d="M256.292,495.505h4.691c2.787,0,4.521,1.581,4.521,3.978v0.034c0,2.669-2.142,4.062-4.76,4.062h-2.362v3.824
			h-2.091V495.505z M260.814,501.692c1.58,0,2.566-0.884,2.566-2.125v-0.034c0-1.394-1.003-2.125-2.566-2.125h-2.431v4.284H260.814z
			"/>
		<path class="st1" d="M270.673,495.42h1.938l5.235,11.983h-2.21l-1.207-2.872h-5.626l-1.225,2.872h-2.142L270.673,495.42z
			 M273.666,502.677l-2.057-4.759l-2.04,4.759H273.666z"/>
		<path class="st1" d="M279.888,495.505h5.303c1.496,0,2.669,0.441,3.434,1.189c0.629,0.646,0.986,1.53,0.986,2.567v0.033
			c0,1.955-1.173,3.128-2.821,3.604l3.212,4.504h-2.481l-2.924-4.147h-2.617v4.147h-2.091V495.505z M285.039,501.403
			c1.495,0,2.447-0.782,2.447-1.989v-0.034c0-1.274-0.918-1.972-2.465-1.972h-3.042v3.995H285.039z"/>
		<path class="st1" d="M295.051,497.442h-3.773v-1.938h9.655v1.938h-3.773v9.961h-2.108V497.442z"/>
		<path class="st1" d="M303.262,495.505h2.091v11.898h-2.091V495.505z"/>
		<path class="st1" d="M311.455,497.442h-3.773v-1.938h9.655v1.938h-3.773v9.961h-2.108V497.442z"/>
		<path class="st1" d="M319.667,495.505h2.091v11.898h-2.091V495.505z"/>
		<path class="st1" d="M324.41,501.488v-0.034c0-3.349,2.584-6.153,6.238-6.153s6.204,2.771,6.204,6.119v0.034
			c0,3.349-2.583,6.153-6.238,6.153C326.96,507.607,324.41,504.837,324.41,501.488z M334.66,501.488v-0.034
			c0-2.312-1.683-4.232-4.046-4.232c-2.362,0-4.012,1.887-4.012,4.198v0.034c0,2.312,1.684,4.216,4.046,4.216
			C333.012,505.67,334.66,503.8,334.66,501.488z"/>
		<path class="st1" d="M339.388,495.505h1.938l6.374,8.227v-8.227h2.057v11.898h-1.75l-6.562-8.465v8.465h-2.057V495.505z"/>
		<path class="st1" d="M357.22,505.755l4.097-3.484c1.632-1.395,2.227-2.143,2.227-3.213c0-1.173-0.833-1.854-1.921-1.854
			s-1.836,0.596-2.736,1.785l-1.496-1.173c1.139-1.581,2.261-2.481,4.386-2.481c2.328,0,3.927,1.428,3.927,3.553v0.034
			c0,1.869-0.986,2.89-3.094,4.606l-2.448,2.039h5.66v1.836h-8.601V505.755z"/>
	</g>
	<g>
		<path class="st1" d="M447.38,440.2h7.175c2.023,0,3.61,0.598,4.645,1.609c0.852,0.874,1.334,2.069,1.334,3.473v0.046
			c0,2.645-1.587,4.231-3.817,4.875l4.347,6.094h-3.357l-3.955-5.611h-3.542v5.611h-2.828V440.2z M454.348,448.179
			c2.023,0,3.312-1.058,3.312-2.69v-0.046c0-1.725-1.242-2.668-3.335-2.668h-4.116v5.404H454.348z"/>
		<path class="st1" d="M469.712,440.085h2.621l7.083,16.212h-2.989l-1.633-3.887h-7.611l-1.656,3.887h-2.897L469.712,440.085z
			 M473.759,449.904l-2.782-6.438l-2.76,6.438H473.759z"/>
		<path class="st1" d="M482.179,440.2h3.013l4.897,7.611l4.898-7.611h3.012v16.097h-2.828v-11.544l-5.082,7.589h-0.092l-5.036-7.543
			v11.498h-2.782V440.2z"/>
		<path class="st1" d="M501.752,444.155h3.059v3.15h-3.059V444.155z M501.752,453.123h3.059v3.174h-3.059V453.123z"/>
		<path class="st1" d="M446.841,469.951h4.437c3.739,0,6.323,2.567,6.323,5.916v0.034c0,3.349-2.584,5.949-6.323,5.949h-4.437
			V469.951z M448.932,471.855v8.091h2.346c2.498,0,4.13-1.683,4.13-4.012v-0.033c0-2.329-1.632-4.046-4.13-4.046H448.932z"/>
		<path class="st1" d="M463.517,469.866h1.938l5.235,11.984h-2.21l-1.207-2.873h-5.626l-1.225,2.873h-2.142L463.517,469.866z
			 M466.509,477.125l-2.057-4.76l-2.04,4.76H466.509z"/>
		<path class="st1" d="M474.125,471.889h-3.773v-1.938h9.655v1.938h-3.773v9.961h-2.108V471.889z"/>
		<path class="st1" d="M484.902,469.866h1.938l5.235,11.984h-2.21l-1.207-2.873h-5.626l-1.225,2.873h-2.142L484.902,469.866z
			 M487.895,477.125l-2.057-4.76l-2.04,4.76H487.895z"/>
		<path class="st1" d="M446.841,495.505h4.691c2.787,0,4.521,1.581,4.521,3.978v0.034c0,2.669-2.142,4.062-4.76,4.062h-2.362v3.824
			h-2.091V495.505z M451.362,501.692c1.58,0,2.566-0.884,2.566-2.125v-0.034c0-1.394-1.003-2.125-2.566-2.125h-2.431v4.284H451.362z
			"/>
		<path class="st1" d="M461.222,495.42h1.938l5.235,11.983h-2.21l-1.207-2.872h-5.626l-1.225,2.872h-2.142L461.222,495.42z
			 M464.214,502.677l-2.057-4.759l-2.04,4.759H464.214z"/>
		<path class="st1" d="M470.437,495.505h5.303c1.496,0,2.669,0.441,3.434,1.189c0.629,0.646,0.986,1.53,0.986,2.567v0.033
			c0,1.955-1.173,3.128-2.821,3.604l3.212,4.504h-2.481l-2.924-4.147h-2.617v4.147h-2.091V495.505z M475.587,501.403
			c1.495,0,2.447-0.782,2.447-1.989v-0.034c0-1.274-0.918-1.972-2.465-1.972h-3.042v3.995H475.587z"/>
		<path class="st1" d="M485.6,497.442h-3.773v-1.938h9.655v1.938h-3.773v9.961H485.6V497.442z"/>
		<path class="st1" d="M493.811,495.505h2.091v11.898h-2.091V495.505z"/>
		<path class="st1" d="M502.004,497.442h-3.773v-1.938h9.655v1.938h-3.773v9.961h-2.108V497.442z"/>
		<path class="st1" d="M510.216,495.505h2.091v11.898h-2.091V495.505z"/>
		<path class="st1" d="M514.959,501.488v-0.034c0-3.349,2.584-6.153,6.238-6.153s6.204,2.771,6.204,6.119v0.034
			c0,3.349-2.583,6.153-6.238,6.153C517.509,507.607,514.959,504.837,514.959,501.488z M525.209,501.488v-0.034
			c0-2.312-1.683-4.232-4.046-4.232c-2.362,0-4.012,1.887-4.012,4.198v0.034c0,2.312,1.684,4.216,4.046,4.216
			C523.561,505.67,525.209,503.8,525.209,501.488z"/>
		<path class="st1" d="M529.937,495.505h1.938l6.374,8.227v-8.227h2.057v11.898h-1.75l-6.562-8.465v8.465h-2.057V495.505z"/>
		<path class="st1" d="M547.666,505.516l1.462-1.359c0.851,1.003,1.802,1.563,3.128,1.563c1.173,0,2.057-0.714,2.057-1.802v-0.034
			c0-1.173-1.07-1.836-2.736-1.836h-0.969l-0.34-1.309l3.212-3.417h-5.15v-1.818h7.87v1.563l-3.314,3.399
			c1.802,0.222,3.502,1.14,3.502,3.332v0.034c0,2.192-1.683,3.773-4.165,3.773C550.148,507.607,548.669,506.74,547.666,505.516z"/>
	</g>
	<g>
		<path class="st1" d="M637.605,440.2h7.175c2.023,0,3.61,0.598,4.645,1.609c0.852,0.874,1.334,2.069,1.334,3.473v0.046
			c0,2.645-1.587,4.231-3.817,4.875l4.347,6.094h-3.357l-3.955-5.611h-3.542v5.611h-2.828V440.2z M644.573,448.179
			c2.023,0,3.312-1.058,3.312-2.69v-0.046c0-1.725-1.242-2.668-3.335-2.668h-4.116v5.404H644.573z"/>
		<path class="st1" d="M659.938,440.085h2.621l7.083,16.212h-2.989l-1.633-3.887h-7.611l-1.656,3.887h-2.897L659.938,440.085z
			 M663.984,449.904l-2.782-6.438l-2.76,6.438H663.984z"/>
		<path class="st1" d="M672.404,440.2h3.013l4.897,7.611l4.898-7.611h3.012v16.097h-2.828v-11.544l-5.082,7.589h-0.092l-5.036-7.543
			v11.498h-2.782V440.2z"/>
		<path class="st1" d="M691.978,444.155h3.059v3.15h-3.059V444.155z M691.978,453.123h3.059v3.174h-3.059V453.123z"/>
		<path class="st1" d="M637.066,469.951h4.437c3.739,0,6.323,2.567,6.323,5.916v0.034c0,3.349-2.584,5.949-6.323,5.949h-4.437
			V469.951z M639.157,471.855v8.091h2.346c2.498,0,4.13-1.683,4.13-4.012v-0.033c0-2.329-1.632-4.046-4.13-4.046H639.157z"/>
		<path class="st1" d="M653.742,469.866h1.938l5.235,11.984h-2.21l-1.207-2.873h-5.626l-1.225,2.873h-2.142L653.742,469.866z
			 M656.734,477.125l-2.057-4.76l-2.04,4.76H656.734z"/>
		<path class="st1" d="M664.351,471.889h-3.773v-1.938h9.655v1.938h-3.773v9.961h-2.108V471.889z"/>
		<path class="st1" d="M675.128,469.866h1.938l5.235,11.984h-2.21l-1.207-2.873h-5.626l-1.225,2.873h-2.142L675.128,469.866z
			 M678.12,477.125l-2.057-4.76l-2.04,4.76H678.12z"/>
		<path class="st1" d="M637.066,495.505h4.691c2.787,0,4.521,1.581,4.521,3.978v0.034c0,2.669-2.142,4.062-4.76,4.062h-2.362v3.824
			h-2.091V495.505z M641.588,501.692c1.58,0,2.566-0.884,2.566-2.125v-0.034c0-1.394-1.003-2.125-2.566-2.125h-2.431v4.284H641.588z
			"/>
		<path class="st1" d="M651.447,495.42h1.938l5.235,11.983h-2.21l-1.207-2.872h-5.626l-1.225,2.872h-2.142L651.447,495.42z
			 M654.439,502.677l-2.057-4.759l-2.04,4.759H654.439z"/>
		<path class="st1" d="M660.662,495.505h5.303c1.496,0,2.669,0.441,3.434,1.189c0.629,0.646,0.986,1.53,0.986,2.567v0.033
			c0,1.955-1.173,3.128-2.821,3.604l3.212,4.504h-2.481l-2.924-4.147h-2.617v4.147h-2.091V495.505z M665.812,501.403
			c1.495,0,2.447-0.782,2.447-1.989v-0.034c0-1.274-0.918-1.972-2.465-1.972h-3.042v3.995H665.812z"/>
		<path class="st1" d="M675.825,497.442h-3.773v-1.938h9.655v1.938h-3.773v9.961h-2.108V497.442z"/>
		<path class="st1" d="M684.036,495.505h2.091v11.898h-2.091V495.505z"/>
		<path class="st1" d="M692.229,497.442h-3.773v-1.938h9.655v1.938h-3.773v9.961h-2.108V497.442z"/>
		<path class="st1" d="M700.441,495.505h2.091v11.898h-2.091V495.505z"/>
		<path class="st1" d="M705.185,501.488v-0.034c0-3.349,2.584-6.153,6.238-6.153s6.204,2.771,6.204,6.119v0.034
			c0,3.349-2.583,6.153-6.238,6.153C707.734,507.607,705.185,504.837,705.185,501.488z M715.435,501.488v-0.034
			c0-2.312-1.683-4.232-4.046-4.232c-2.362,0-4.012,1.887-4.012,4.198v0.034c0,2.312,1.684,4.216,4.046,4.216
			C713.786,505.67,715.435,503.8,715.435,501.488z"/>
		<path class="st1" d="M720.162,495.505h1.938l6.374,8.227v-8.227h2.057v11.898h-1.75l-6.562-8.465v8.465h-2.057V495.505z"/>
		<path class="st1" d="M744.164,504.734h-6l-0.391-1.495l6.612-7.819h1.784v7.598h1.7v1.717h-1.7v2.669h-2.006V504.734z
			 M744.164,503.017v-4.708l-3.909,4.708H744.164z"/>
	</g>
</g>
<g id="Layer_2">
</g>
</svg>
